# xmcd CD database file
#
# Track frame offsets:
#	150
#	18607
#	36202
#	63000
#	76927
#	96127
#	114955
#	135072
#	150895
#	177152
#
# Disc length: 2602 seconds
#
# Revision: 1
# Processed by: cddbd v1.4PL0 Copyright (c) Steve Scherf et al.
# Submitted via: CDex 1.40PlusFr
#
DISCID=630a280a
DTITLE=Doyle Bramhall - Fitchburg Street
DYEAR=2003
DGENRE=Blues
TTITLE0=Dimples
TTITLE1=I'd Rather Be
TTITLE2=Changes
TTITLE3=Life By The Drop
TTITLE4=That's How Strong My Love Is
TTITLE5=Baby What you Want me to do
TTITLE6=It Ain't No Use
TTITLE7=Maudie
TTITLE8=Fourty Four
TTITLE9=Sugar
EXTD=YEAR: 2003 ID3G: 0
EXTT0=
EXTT1=
EXTT2=
EXTT3=
EXTT4=
EXTT5=
EXTT6=
EXTT7=
EXTT8=
EXTT9=
PLAYORDER=
